<?xml version="1.0" standalone="no"?>
<!DOCTYPE svg PUBLIC "-//W3C//DTD SVG 20010904//EN"
 "http://www.w3.org/TR/2001/REC-SVG-20010904/DTD/svg10.dtd">
<svg version="1.0" xmlns="http://www.w3.org/2000/svg"
 width="700.000000pt" height="700.000000pt" viewBox="0 0 700.000000 700.000000"
 preserveAspectRatio="xMidYMid meet">
<metadata>
Created by potrace 1.11, written by Peter Selinger 2001-2013
</metadata>
<g transform="translate(0.000000,700.000000) scale(0.100000,-0.100000)"
fill="#000000" stroke="none">
<path d="M450 3500 l0 -3050 3050 0 3050 0 0 3050 0 3050 -3050 0 -3050 0 0
-3050z m2000 2000 l0 -950 -950 0 -950 0 0 950 0 950 950 0 950 0 0 -950z
m2000 0 l0 -950 -950 0 -950 0 0 950 0 950 950 0 950 0 0 -950z m2000 0 l0
-950 -950 0 -950 0 0 950 0 950 950 0 950 0 0 -950z m-4000 -2000 l0 -950
-950 0 -950 0 0 950 0 950 950 0 950 0 0 -950z m2000 0 l0 -950 -950 0 -950 0
0 950 0 950 950 0 950 0 0 -950z m2000 0 l0 -950 -950 0 -950 0 0 950 0 950
950 0 950 0 0 -950z m-4000 -2000 l0 -950 -950 0 -950 0 0 950 0 950 950 0
950 0 0 -950z m2000 0 l0 -950 -950 0 -950 0 0 950 0 950 950 0 950 0 0 -950z
m2000 0 l0 -950 -950 0 -950 0 0 950 0 950 950 0 950 0 0 -950z"/>
<path d="M3398 6295 c-1 -2 -23 -6 -47 -10 -74 -11 -208 -65 -284 -114 -181
-118 -311 -311 -351 -518 -23 -120 -15 -274 21 -393 2 -8 4 -16 4 -17 -3 -11
56 -125 92 -180 142 -219 374 -350 637 -359 195 -6 356 43 507 157 88 67 125
106 190 203 87 130 126 256 127 416 1 120 -7 189 -30 257 -101 296 -334 499
-634 552 -51 9 -224 13 -232 6z"/>
<path d="M5385 4293 c-103 -20 -155 -38 -255 -87 -180 -89 -322 -258 -393
-466 -23 -68 -29 -106 -32 -215 -16 -445 327 -809 771 -820 229 -6 424 70 586
229 159 157 241 366 234 596 -8 238 -106 433 -296 593 -57 47 -202 127 -231
127 -8 0 -19 3 -23 7 -18 18 -112 34 -221 37 -66 2 -129 1 -140 -1z"/>
<path d="M1399 2295 c-2 -2 -24 -6 -48 -10 -188 -28 -385 -157 -509 -334 -45
-65 -107 -199 -118 -256 -2 -11 -8 -42 -13 -69 -19 -102 -4 -289 29 -371 5
-11 16 -42 26 -69 42 -115 166 -265 289 -349 68 -47 184 -97 270 -118 97 -23
294 -18 385 10 217 66 384 196 488 381 106 190 129 428 60 640 -54 165 -160
307 -309 410 -128 88 -265 132 -430 136 -64 1 -118 1 -120 -1z"/>
<path d="M3390 2293 c-97 -11 -246 -69 -339 -132 -464 -315 -463 -1004 0
-1322 50 -34 154 -87 183 -94 6 -1 18 -4 26 -7 95 -34 273 -45 386 -23 132 26
227 68 332 147 198 150 310 362 317 603 5 150 -14 244 -72 374 -98 219 -342
409 -574 447 -44 7 -214 12 -259 7z"/>
<path d="M5375 2290 c-22 -5 -51 -11 -65 -13 -14 -3 -50 -14 -80 -25 -232 -84
-412 -271 -493 -512 -48 -144 -44 -365 10 -509 85 -230 265 -407 492 -486 87
-30 126 -37 243 -40 392 -11 729 262 803 650 8 39 12 116 11 175 -11 419 -350
756 -771 765 -60 2 -128 -1 -150 -5z"/>
</g>
</svg>
